<svg width="16" height="16" viewBox="0 0 16 16" fill="none" xmlns="http://www.w3.org/2000/svg">
<g clip-path="url(#clip0_3407_1374)">
<path d="M10.6598 13.991V12.6586C10.6598 11.9518 10.379 11.274 9.87924 10.7742C9.37947 10.2744 8.70163 9.99365 7.99485 9.99365H3.99745C3.29067 9.99365 2.61283 10.2744 2.11306 10.7742C1.61329 11.274 1.33252 11.9518 1.33252 12.6586V13.991" stroke="#0A0A0A" stroke-width="1.33247" stroke-linecap="round" stroke-linejoin="round"/>
<path d="M10.6597 2.08398C11.2311 2.23213 11.7372 2.56585 12.0985 3.03274C12.4598 3.49964 12.6558 4.07328 12.6558 4.66364C12.6558 5.25399 12.4598 5.82764 12.0985 6.29453C11.7372 6.76143 11.2311 7.09514 10.6597 7.24329" stroke="#0A0A0A" stroke-width="1.33247" stroke-linecap="round" stroke-linejoin="round"/>
<path d="M14.6571 13.9909V12.6584C14.6567 12.0679 14.4602 11.4943 14.0984 11.0277C13.7367 10.561 13.2302 10.2277 12.6584 10.0801" stroke="#0A0A0A" stroke-width="1.33247" stroke-linecap="round" stroke-linejoin="round"/>
<path d="M5.99623 7.3284C7.46803 7.3284 8.66116 6.13527 8.66116 4.66347C8.66116 3.19167 7.46803 1.99854 5.99623 1.99854C4.52443 1.99854 3.3313 3.19167 3.3313 4.66347C3.3313 6.13527 4.52443 7.3284 5.99623 7.3284Z" stroke="#0A0A0A" stroke-width="1.33247" stroke-linecap="round" stroke-linejoin="round"/>
</g>
<defs>
<clipPath id="clip0_3407_1374">
<rect width="15.9896" height="15.9896" fill="white"/>
</clipPath>
</defs>
</svg>
