<svg width="16" height="16" viewBox="0 0 16 16" fill="none" xmlns="http://www.w3.org/2000/svg">
<g clip-path="url(#clip0_3407_1464)">
<path d="M14.5245 6.66221C14.8288 8.15544 14.6119 9.70784 13.9101 11.0605C13.2083 12.4132 12.064 13.4845 10.668 14.0956C9.27201 14.7067 7.70869 14.8208 6.23876 14.4187C4.76883 14.0167 3.48115 13.1229 2.59046 11.8864C1.69976 10.6499 1.25989 9.14542 1.34419 7.62384C1.4285 6.10226 2.03189 4.65558 3.05374 3.52503C4.07559 2.39449 5.45413 1.64843 6.95947 1.41127C8.46481 1.1741 10.006 1.46017 11.3259 2.22177" stroke="#030213" stroke-width="1.33247" stroke-linecap="round" stroke-linejoin="round"/>
<path d="M5.99609 7.32867L7.99479 9.32737L14.6571 2.66504" stroke="#030213" stroke-width="1.33247" stroke-linecap="round" stroke-linejoin="round"/>
</g>
<defs>
<clipPath id="clip0_3407_1464">
<rect width="15.9896" height="15.9896" fill="white"/>
</clipPath>
</defs>
</svg>
