<svg width="16" height="16" viewBox="0 0 16 16" fill="none" xmlns="http://www.w3.org/2000/svg">
<g clip-path="url(#clip0_3407_1390)">
<path d="M7.99485 14.6572C6.22789 14.6572 4.5333 13.9553 3.28387 12.7058C2.03444 11.4564 1.33252 9.76181 1.33252 7.99485C1.33252 6.22789 2.03444 4.5333 3.28387 3.28387C4.5333 2.03444 6.22789 1.33252 7.99485 1.33252C9.76181 1.33252 11.4564 1.96425 12.7058 3.08873C13.9553 4.21322 14.6572 5.73835 14.6572 7.32861C14.6572 8.21209 14.3062 9.05939 13.6815 9.6841C13.0568 10.3088 12.2095 10.6598 11.326 10.6598H9.82699C9.61046 10.6598 9.39822 10.7201 9.21403 10.8339C9.02985 10.9477 8.881 11.1106 8.78417 11.3043C8.68734 11.4979 8.64635 11.7147 8.66579 11.9304C8.68524 12.146 8.76435 12.352 8.89426 12.5252L9.09413 12.7917C9.22404 12.9649 9.30316 13.1709 9.3226 13.3866C9.34205 13.6022 9.30106 13.819 9.20422 14.0127C9.10739 14.2063 8.95854 14.3692 8.77436 14.483C8.59017 14.5969 8.37793 14.6572 8.1614 14.6572H7.99485Z" stroke="#0A0A0A" stroke-width="1.33247" stroke-linecap="round" stroke-linejoin="round"/>
<path d="M8.99425 4.66379C9.17822 4.66379 9.32737 4.51465 9.32737 4.33067C9.32737 4.1467 9.17822 3.99756 8.99425 3.99756C8.81027 3.99756 8.66113 4.1467 8.66113 4.33067C8.66113 4.51465 8.81027 4.66379 8.99425 4.66379Z" fill="#0A0A0A" stroke="#0A0A0A" stroke-width="1.33247" stroke-linecap="round" stroke-linejoin="round"/>
<path d="M11.6593 7.32834C11.8433 7.32834 11.9924 7.1792 11.9924 6.99523C11.9924 6.81125 11.8433 6.66211 11.6593 6.66211C11.4753 6.66211 11.3262 6.81125 11.3262 6.99523C11.3262 7.1792 11.4753 7.32834 11.6593 7.32834Z" fill="#0A0A0A" stroke="#0A0A0A" stroke-width="1.33247" stroke-linecap="round" stroke-linejoin="round"/>
<path d="M4.33067 8.66086C4.51465 8.66086 4.66379 8.51172 4.66379 8.32775C4.66379 8.14377 4.51465 7.99463 4.33067 7.99463C4.1467 7.99463 3.99756 8.14377 3.99756 8.32775C3.99756 8.51172 4.1467 8.66086 4.33067 8.66086Z" fill="#0A0A0A" stroke="#0A0A0A" stroke-width="1.33247" stroke-linecap="round" stroke-linejoin="round"/>
<path d="M5.66319 5.32981C5.84717 5.32981 5.99631 5.18067 5.99631 4.99669C5.99631 4.81272 5.84717 4.66357 5.66319 4.66357C5.47922 4.66357 5.33008 4.81272 5.33008 4.99669C5.33008 5.18067 5.47922 5.32981 5.66319 5.32981Z" fill="#0A0A0A" stroke="#0A0A0A" stroke-width="1.33247" stroke-linecap="round" stroke-linejoin="round"/>
</g>
<defs>
<clipPath id="clip0_3407_1390">
<rect width="15.9896" height="15.9896" fill="white"/>
</clipPath>
</defs>
</svg>
